# Blender v3.0.1 OBJ File: 'pebbles.blend'
# www.blender.org
mtllib pebbles_1.mtl
o Cube.001
v -0.119041 -0.424988 0.173860
v -0.119041 -0.509931 0.173860
v -0.092612 -0.424988 0.316861
v -0.092612 -0.509931 0.316861
v -0.262043 -0.424988 0.200289
v -0.262043 -0.509931 0.200289
v -0.235614 -0.424988 0.343290
v -0.235614 -0.509931 0.343290
v 0.213183 -0.448703 -0.061104
v 0.213183 -0.511262 -0.061104
v 0.146261 -0.448703 0.136889
v 0.146261 -0.511262 0.136889
v 0.061917 -0.448703 -0.117181
v 0.061917 -0.511262 -0.117181
v -0.005005 -0.448703 0.080812
v -0.005005 -0.511262 0.080812
v -0.077263 -0.382619 -0.121077
v -0.077263 -0.523586 -0.121077
v 0.041430 -0.382619 0.089056
v 0.041430 -0.523586 0.089056
v -0.287396 -0.382619 -0.002383
v -0.287396 -0.523586 -0.002383
v -0.168703 -0.382619 0.207750
v -0.168703 -0.523586 0.207750
v -0.144987 -0.456476 -0.174054
v -0.144987 -0.495319 -0.174054
v -0.186540 -0.456476 -0.051118
v -0.186540 -0.495319 -0.051118
v -0.238909 -0.456476 -0.208873
v -0.238909 -0.495319 -0.208873
v -0.280462 -0.456476 -0.085937
v -0.280462 -0.495319 -0.085937
vt 0.625000 0.500000
vt 0.875000 0.500000
vt 0.875000 0.750000
vt 0.625000 0.750000
vt 0.375000 0.750000
vt 0.625000 1.000000
vt 0.375000 1.000000
vt 0.375000 0.000000
vt 0.625000 0.000000
vt 0.625000 0.250000
vt 0.375000 0.250000
vt 0.125000 0.500000
vt 0.375000 0.500000
vt 0.125000 0.750000
vt 0.625000 0.500000
vt 0.875000 0.500000
vt 0.875000 0.750000
vt 0.625000 0.750000
vt 0.375000 0.750000
vt 0.625000 1.000000
vt 0.375000 1.000000
vt 0.375000 0.000000
vt 0.625000 0.000000
vt 0.625000 0.250000
vt 0.375000 0.250000
vt 0.125000 0.500000
vt 0.375000 0.500000
vt 0.125000 0.750000
vt 0.625000 0.500000
vt 0.875000 0.500000
vt 0.875000 0.750000
vt 0.625000 0.750000
vt 0.375000 0.750000
vt 0.625000 1.000000
vt 0.375000 1.000000
vt 0.375000 0.000000
vt 0.625000 0.000000
vt 0.625000 0.250000
vt 0.375000 0.250000
vt 0.125000 0.500000
vt 0.375000 0.500000
vt 0.125000 0.750000
vt 0.625000 0.500000
vt 0.875000 0.500000
vt 0.875000 0.750000
vt 0.625000 0.750000
vt 0.375000 0.750000
vt 0.625000 1.000000
vt 0.375000 1.000000
vt 0.375000 0.000000
vt 0.625000 0.000000
vt 0.625000 0.250000
vt 0.375000 0.250000
vt 0.125000 0.500000
vt 0.375000 0.500000
vt 0.125000 0.750000
vn 0.0000 1.0000 -0.0000
vn 0.1817 0.0000 0.9833
vn -0.9833 0.0000 0.1817
vn 0.0000 -1.0000 0.0000
vn 0.9833 0.0000 -0.1817
vn -0.1817 0.0000 -0.9833
vn -0.3476 0.0000 0.9376
vn -0.9473 0.0000 -0.3202
vn 0.9473 0.0000 0.3202
vn 0.3476 0.0000 -0.9376
vn 0.4918 0.0000 0.8707
vn -0.8707 0.0000 0.4918
vn 0.8707 0.0000 -0.4918
vn -0.4918 0.0000 -0.8707
usemtl Material
s off
f 1/1/1 5/2/1 7/3/1 3/4/1
f 4/5/2 3/4/2 7/6/2 8/7/2
f 8/8/3 7/9/3 5/10/3 6/11/3
f 6/12/4 2/13/4 4/5/4 8/14/4
f 2/13/5 1/1/5 3/4/5 4/5/5
f 6/11/6 5/10/6 1/1/6 2/13/6
f 9/15/1 13/16/1 15/17/1 11/18/1
f 12/19/7 11/18/7 15/20/7 16/21/7
f 16/22/8 15/23/8 13/24/8 14/25/8
f 14/26/4 10/27/4 12/19/4 16/28/4
f 10/27/9 9/15/9 11/18/9 12/19/9
f 14/25/10 13/24/10 9/15/10 10/27/10
f 17/29/1 21/30/1 23/31/1 19/32/1
f 20/33/11 19/32/11 23/34/11 24/35/11
f 24/36/12 23/37/12 21/38/12 22/39/12
f 22/40/4 18/41/4 20/33/4 24/42/4
f 18/41/13 17/29/13 19/32/13 20/33/13
f 22/39/14 21/38/14 17/29/14 18/41/14
f 25/43/1 29/44/1 31/45/1 27/46/1
f 28/47/7 27/46/7 31/48/7 32/49/7
f 32/50/8 31/51/8 29/52/8 30/53/8
f 30/54/4 26/55/4 28/47/4 32/56/4
f 26/55/9 25/43/9 27/46/9 28/47/9
f 30/53/10 29/52/10 25/43/10 26/55/10
